<svg class="rich-terminal" viewBox="0 0 1970 1026.0" xmlns="http://www.w3.org/2000/svg">
    <!-- Generated with Rich https://www.textualize.io -->
    <style>

    @font-face {
        font-family: "Fira Code";
        src: local("FiraCode-Regular"),
                url("https://cdnjs.cloudflare.com/ajax/libs/firacode/6.2.0/woff2/FiraCode-Regular.woff2") format("woff2"),
                url("https://cdnjs.cloudflare.com/ajax/libs/firacode/6.2.0/woff/FiraCode-Regular.woff") format("woff");
        font-style: normal;
        font-weight: 400;
    }
    @font-face {
        font-family: "Fira Code";
        src: local("FiraCode-Bold"),
                url("https://cdnjs.cloudflare.com/ajax/libs/firacode/6.2.0/woff2/FiraCode-Bold.woff2") format("woff2"),
                url("https://cdnjs.cloudflare.com/ajax/libs/firacode/6.2.0/woff/FiraCode-Bold.woff") format("woff");
        font-style: bold;
        font-weight: 700;
    }

    .terminal-1587723939-matrix {
        font-family: Fira Code, monospace;
        font-size: 20px;
        line-height: 24.4px;
        font-variant-east-asian: full-width;
    }

    .terminal-1587723939-title {
        font-size: 18px;
        font-weight: bold;
        font-family: arial;
    }

    .terminal-1587723939-r1 { fill: #121212 }
.terminal-1587723939-r2 { fill: #191919 }
.terminal-1587723939-r3 { fill: #c5c8c6 }
.terminal-1587723939-r4 { fill: #fea62b;font-weight: bold }
.terminal-1587723939-r5 { fill: #e0e0e0 }
.terminal-1587723939-r6 { fill: #0178d4;font-weight: bold }
.terminal-1587723939-r7 { fill: #8d8d8d }
.terminal-1587723939-r8 { fill: #747474;font-weight: bold }
.terminal-1587723939-r9 { fill: #a1a1a1 }
.terminal-1587723939-r10 { fill: #625e4c }
.terminal-1587723939-r11 { fill: #4ebf71 }
.terminal-1587723939-r12 { fill: #272727;font-weight: bold }
.terminal-1587723939-r13 { fill: #e0e0e0;font-weight: bold }
.terminal-1587723939-r14 { fill: #fea62b }
.terminal-1587723939-r15 { fill: #b93c5b }
.terminal-1587723939-r16 { fill: #a0a0a0 }
.terminal-1587723939-r17 { fill: #ffa62b;font-weight: bold }
    </style>

    <defs>
    <clipPath id="terminal-1587723939-clip-terminal">
      <rect x="0" y="0" width="1951.0" height="975.0" />
    </clipPath>
    <clipPath id="terminal-1587723939-line-0">
    <rect x="0" y="1.5" width="1952" height="24.65"/>
            </clipPath>
<clipPath id="terminal-1587723939-line-1">
    <rect x="0" y="25.9" width="1952" height="24.65"/>
            </clipPath>
<clipPath id="terminal-1587723939-line-2">
    <rect x="0" y="50.3" width="1952" height="24.65"/>
            </clipPath>
<clipPath id="terminal-1587723939-line-3">
    <rect x="0" y="74.7" width="1952" height="24.65"/>
            </clipPath>
<clipPath id="terminal-1587723939-line-4">
    <rect x="0" y="99.1" width="1952" height="24.65"/>
            </clipPath>
<clipPath id="terminal-1587723939-line-5">
    <rect x="0" y="123.5" width="1952" height="24.65"/>
            </clipPath>
<clipPath id="terminal-1587723939-line-6">
    <rect x="0" y="147.9" width="1952" height="24.65"/>
            </clipPath>
<clipPath id="terminal-1587723939-line-7">
    <rect x="0" y="172.3" width="1952" height="24.65"/>
            </clipPath>
<clipPath id="terminal-1587723939-line-8">
    <rect x="0" y="196.7" width="1952" height="24.65"/>
            </clipPath>
<clipPath id="terminal-1587723939-line-9">
    <rect x="0" y="221.1" width="1952" height="24.65"/>
            </clipPath>
<clipPath id="terminal-1587723939-line-10">
    <rect x="0" y="245.5" width="1952" height="24.65"/>
            </clipPath>
<clipPath id="terminal-1587723939-line-11">
    <rect x="0" y="269.9" width="1952" height="24.65"/>
            </clipPath>
<clipPath id="terminal-1587723939-line-12">
    <rect x="0" y="294.3" width="1952" height="24.65"/>
            </clipPath>
<clipPath id="terminal-1587723939-line-13">
    <rect x="0" y="318.7" width="1952" height="24.65"/>
            </clipPath>
<clipPath id="terminal-1587723939-line-14">
    <rect x="0" y="343.1" width="1952" height="24.65"/>
            </clipPath>
<clipPath id="terminal-1587723939-line-15">
    <rect x="0" y="367.5" width="1952" height="24.65"/>
            </clipPath>
<clipPath id="terminal-1587723939-line-16">
    <rect x="0" y="391.9" width="1952" height="24.65"/>
            </clipPath>
<clipPath id="terminal-1587723939-line-17">
    <rect x="0" y="416.3" width="1952" height="24.65"/>
            </clipPath>
<clipPath id="terminal-1587723939-line-18">
    <rect x="0" y="440.7" width="1952" height="24.65"/>
            </clipPath>
<clipPath id="terminal-1587723939-line-19">
    <rect x="0" y="465.1" width="1952" height="24.65"/>
            </clipPath>
<clipPath id="terminal-1587723939-line-20">
    <rect x="0" y="489.5" width="1952" height="24.65"/>
            </clipPath>
<clipPath id="terminal-1587723939-line-21">
    <rect x="0" y="513.9" width="1952" height="24.65"/>
            </clipPath>
<clipPath id="terminal-1587723939-line-22">
    <rect x="0" y="538.3" width="1952" height="24.65"/>
            </clipPath>
<clipPath id="terminal-1587723939-line-23">
    <rect x="0" y="562.7" width="1952" height="24.65"/>
            </clipPath>
<clipPath id="terminal-1587723939-line-24">
    <rect x="0" y="587.1" width="1952" height="24.65"/>
            </clipPath>
<clipPath id="terminal-1587723939-line-25">
    <rect x="0" y="611.5" width="1952" height="24.65"/>
            </clipPath>
<clipPath id="terminal-1587723939-line-26">
    <rect x="0" y="635.9" width="1952" height="24.65"/>
            </clipPath>
<clipPath id="terminal-1587723939-line-27">
    <rect x="0" y="660.3" width="1952" height="24.65"/>
            </clipPath>
<clipPath id="terminal-1587723939-line-28">
    <rect x="0" y="684.7" width="1952" height="24.65"/>
            </clipPath>
<clipPath id="terminal-1587723939-line-29">
    <rect x="0" y="709.1" width="1952" height="24.65"/>
            </clipPath>
<clipPath id="terminal-1587723939-line-30">
    <rect x="0" y="733.5" width="1952" height="24.65"/>
            </clipPath>
<clipPath id="terminal-1587723939-line-31">
    <rect x="0" y="757.9" width="1952" height="24.65"/>
            </clipPath>
<clipPath id="terminal-1587723939-line-32">
    <rect x="0" y="782.3" width="1952" height="24.65"/>
            </clipPath>
<clipPath id="terminal-1587723939-line-33">
    <rect x="0" y="806.7" width="1952" height="24.65"/>
            </clipPath>
<clipPath id="terminal-1587723939-line-34">
    <rect x="0" y="831.1" width="1952" height="24.65"/>
            </clipPath>
<clipPath id="terminal-1587723939-line-35">
    <rect x="0" y="855.5" width="1952" height="24.65"/>
            </clipPath>
<clipPath id="terminal-1587723939-line-36">
    <rect x="0" y="879.9" width="1952" height="24.65"/>
            </clipPath>
<clipPath id="terminal-1587723939-line-37">
    <rect x="0" y="904.3" width="1952" height="24.65"/>
            </clipPath>
<clipPath id="terminal-1587723939-line-38">
    <rect x="0" y="928.7" width="1952" height="24.65"/>
            </clipPath>
    </defs>

    <rect fill="#292929" stroke="rgba(255,255,255,0.35)" stroke-width="1" x="1" y="1" width="1968" height="1024" rx="8"/><text class="terminal-1587723939-title" fill="#c5c8c6" text-anchor="middle" x="984" y="27">catflap</text>
            <g transform="translate(26,22)">
            <circle cx="0" cy="0" r="7" fill="#ff5f57"/>
            <circle cx="22" cy="0" r="7" fill="#febc2e"/>
            <circle cx="44" cy="0" r="7" fill="#28c840"/>
            </g>
        
    <g transform="translate(9, 41)" clip-path="url(#terminal-1587723939-clip-terminal)">
    <rect fill="#191919" x="0" y="1.5" width="12.2" height="24.65" shape-rendering="crispEdges"/><rect fill="#1b1b1b" x="12.2" y="1.5" width="1744.6" height="24.65" shape-rendering="crispEdges"/><rect fill="#121212" x="1756.8" y="1.5" width="12.2" height="24.65" shape-rendering="crispEdges"/><rect fill="#191919" x="1769" y="1.5" width="12.2" height="24.65" shape-rendering="crispEdges"/><rect fill="#1b1b1b" x="1781.2" y="1.5" width="158.6" height="24.65" shape-rendering="crispEdges"/><rect fill="#121212" x="1939.8" y="1.5" width="12.2" height="24.65" shape-rendering="crispEdges"/><rect fill="#191919" x="0" y="25.9" width="12.2" height="24.65" shape-rendering="crispEdges"/><rect fill="#1b1b1b" x="12.2" y="25.9" width="12.2" height="24.65" shape-rendering="crispEdges"/><rect fill="#1b1b1b" x="24.4" y="25.9" width="48.8" height="24.65" shape-rendering="crispEdges"/><rect fill="#1b1b1b" x="73.2" y="25.9" width="48.8" height="24.65" shape-rendering="crispEdges"/><rect fill="#1b1b1b" x="122" y="25.9" width="24.4" height="24.65" shape-rendering="crispEdges"/><rect fill="#1b1b1b" x="146.4" y="25.9" width="12.2" height="24.65" shape-rendering="crispEdges"/><rect fill="#1b1b1b" x="158.6" y="25.9" width="97.6" height="24.65" shape-rendering="crispEdges"/><rect fill="#1b1b1b" x="256.2" y="25.9" width="61" height="24.65" shape-rendering="crispEdges"/><rect fill="#1b1b1b" x="317.2" y="25.9" width="1390.8" height="24.65" shape-rendering="crispEdges"/><rect fill="#1b1b1b" x="1708" y="25.9" width="12.2" height="24.65" shape-rendering="crispEdges"/><rect fill="#1b1b1b" x="1720.2" y="25.9" width="12.2" height="24.65" shape-rendering="crispEdges"/><rect fill="#1b1b1b" x="1732.4" y="25.9" width="12.2" height="24.65" shape-rendering="crispEdges"/><rect fill="#1b1b1b" x="1744.6" y="25.9" width="12.2" height="24.65" shape-rendering="crispEdges"/><rect fill="#121212" x="1756.8" y="25.9" width="12.2" height="24.65" shape-rendering="crispEdges"/><rect fill="#191919" x="1769" y="25.9" width="12.2" height="24.65" shape-rendering="crispEdges"/><rect fill="#1b1b1b" x="1781.2" y="25.9" width="24.4" height="24.65" shape-rendering="crispEdges"/><rect fill="#1b1b1b" x="1805.6" y="25.9" width="73.2" height="24.65" shape-rendering="crispEdges"/><rect fill="#1b1b1b" x="1878.8" y="25.9" width="36.6" height="24.65" shape-rendering="crispEdges"/><rect fill="#1b1b1b" x="1915.4" y="25.9" width="24.4" height="24.65" shape-rendering="crispEdges"/><rect fill="#121212" x="1939.8" y="25.9" width="12.2" height="24.65" shape-rendering="crispEdges"/><rect fill="#191919" x="0" y="50.3" width="12.2" height="24.65" shape-rendering="crispEdges"/><rect fill="#1b1b1b" x="12.2" y="50.3" width="1744.6" height="24.65" shape-rendering="crispEdges"/><rect fill="#121212" x="1756.8" y="50.3" width="12.2" height="24.65" shape-rendering="crispEdges"/><rect fill="#191919" x="1769" y="50.3" width="12.2" height="24.65" shape-rendering="crispEdges"/><rect fill="#1b1b1b" x="1781.2" y="50.3" width="158.6" height="24.65" shape-rendering="crispEdges"/><rect fill="#121212" x="1939.8" y="50.3" width="12.2" height="24.65" shape-rendering="crispEdges"/><rect fill="#272727" x="0" y="74.7" width="219.6" height="24.65" shape-rendering="crispEdges"/><rect fill="#272727" x="219.6" y="74.7" width="24.4" height="24.65" shape-rendering="crispEdges"/><rect fill="#272727" x="244" y="74.7" width="341.6" height="24.65" shape-rendering="crispEdges"/><rect fill="#272727" x="585.6" y="74.7" width="12.2" height="24.65" shape-rendering="crispEdges"/><rect fill="#272727" x="597.8" y="74.7" width="12.2" height="24.65" shape-rendering="crispEdges"/><rect fill="#272727" x="610" y="74.7" width="24.4" height="24.65" shape-rendering="crispEdges"/><rect fill="#fea62b" x="634.4" y="74.7" width="36.6" height="24.65" shape-rendering="crispEdges"/><rect fill="#272727" x="671" y="74.7" width="85.4" height="24.65" shape-rendering="crispEdges"/><rect fill="#272727" x="756.4" y="74.7" width="475.8" height="24.65" shape-rendering="crispEdges"/><rect fill="#272727" x="1232.2" y="74.7" width="695.4" height="24.65" shape-rendering="crispEdges"/><rect fill="#000000" x="1927.6" y="74.7" width="24.4" height="24.65" shape-rendering="crispEdges"/><rect fill="#272727" x="0" y="99.1" width="219.6" height="24.65" shape-rendering="crispEdges"/><rect fill="#272727" x="219.6" y="99.1" width="24.4" height="24.65" shape-rendering="crispEdges"/><rect fill="#272727" x="244" y="99.1" width="341.6" height="24.65" shape-rendering="crispEdges"/><rect fill="#272727" x="585.6" y="99.1" width="12.2" height="24.65" shape-rendering="crispEdges"/><rect fill="#272727" x="597.8" y="99.1" width="12.2" height="24.65" shape-rendering="crispEdges"/><rect fill="#272727" x="610" y="99.1" width="24.4" height="24.65" shape-rendering="crispEdges"/><rect fill="#fea62b" x="634.4" y="99.1" width="36.6" height="24.65" shape-rendering="crispEdges"/><rect fill="#272727" x="671" y="99.1" width="85.4" height="24.65" shape-rendering="crispEdges"/><rect fill="#272727" x="756.4" y="99.1" width="24.4" height="24.65" shape-rendering="crispEdges"/><rect fill="#272727" x="780.8" y="99.1" width="402.6" height="24.65" shape-rendering="crispEdges"/><rect fill="#272727" x="1183.4" y="99.1" width="744.2" height="24.65" shape-rendering="crispEdges"/><rect fill="#000000" x="1927.6" y="99.1" width="24.4" height="24.65" shape-rendering="crispEdges"/><rect fill="#272727" x="0" y="123.5" width="219.6" height="24.65" shape-rendering="crispEdges"/><rect fill="#272727" x="219.6" y="123.5" width="24.4" height="24.65" shape-rendering="crispEdges"/><rect fill="#272727" x="244" y="123.5" width="341.6" height="24.65" shape-rendering="crispEdges"/><rect fill="#272727" x="585.6" y="123.5" width="12.2" height="24.65" shape-rendering="crispEdges"/><rect fill="#272727" x="597.8" y="123.5" width="12.2" height="24.65" shape-rendering="crispEdges"/><rect fill="#272727" x="610" y="123.5" width="24.4" height="24.65" shape-rendering="crispEdges"/><rect fill="#fea62b" x="634.4" y="123.5" width="36.6" height="24.65" shape-rendering="crispEdges"/><rect fill="#272727" x="671" y="123.5" width="85.4" height="24.65" shape-rendering="crispEdges"/><rect fill="#272727" x="756.4" y="123.5" width="24.4" height="24.65" shape-rendering="crispEdges"/><rect fill="#272727" x="780.8" y="123.5" width="402.6" height="24.65" shape-rendering="crispEdges"/><rect fill="#272727" x="1183.4" y="123.5" width="744.2" height="24.65" shape-rendering="crispEdges"/><rect fill="#000000" x="1927.6" y="123.5" width="24.4" height="24.65" shape-rendering="crispEdges"/><rect fill="#272727" x="0" y="147.9" width="219.6" height="24.65" shape-rendering="crispEdges"/><rect fill="#272727" x="219.6" y="147.9" width="24.4" height="24.65" shape-rendering="crispEdges"/><rect fill="#272727" x="244" y="147.9" width="341.6" height="24.65" shape-rendering="crispEdges"/><rect fill="#272727" x="585.6" y="147.9" width="12.2" height="24.65" shape-rendering="crispEdges"/><rect fill="#272727" x="597.8" y="147.9" width="12.2" height="24.65" shape-rendering="crispEdges"/><rect fill="#272727" x="610" y="147.9" width="24.4" height="24.65" shape-rendering="crispEdges"/><rect fill="#fea62b" x="634.4" y="147.9" width="36.6" height="24.65" shape-rendering="crispEdges"/><rect fill="#272727" x="671" y="147.9" width="73.2" height="24.65" shape-rendering="crispEdges"/><rect fill="#272727" x="744.2" y="147.9" width="24.4" height="24.65" shape-rendering="crispEdges"/><rect fill="#0178d4" x="768.6" y="147.9" width="61" height="24.65" shape-rendering="crispEdges"/><rect fill="#272727" x="829.6" y="147.9" width="268.4" height="24.65" shape-rendering="crispEdges"/><rect fill="#272727" x="1098" y="147.9" width="829.6" height="24.65" shape-rendering="crispEdges"/><rect fill="#000000" x="1927.6" y="147.9" width="24.4" height="24.65" shape-rendering="crispEdges"/><rect fill="#272727" x="0" y="172.3" width="1927.6" height="24.65" shape-rendering="crispEdges"/><rect fill="#000000" x="1927.6" y="172.3" width="24.4" height="24.65" shape-rendering="crispEdges"/><rect fill="#272727" x="0" y="196.7" width="1927.6" height="24.65" shape-rendering="crispEdges"/><rect fill="#000000" x="1927.6" y="196.7" width="24.4" height="24.65" shape-rendering="crispEdges"/><rect fill="#272727" x="0" y="221.1" width="1927.6" height="24.65" shape-rendering="crispEdges"/><rect fill="#000000" x="1927.6" y="221.1" width="24.4" height="24.65" shape-rendering="crispEdges"/><rect fill="#272727" x="0" y="245.5" width="1927.6" height="24.65" shape-rendering="crispEdges"/><rect fill="#000000" x="1927.6" y="245.5" width="24.4" height="24.65" shape-rendering="crispEdges"/><rect fill="#272727" x="0" y="269.9" width="1927.6" height="24.65" shape-rendering="crispEdges"/><rect fill="#000000" x="1927.6" y="269.9" width="24.4" height="24.65" shape-rendering="crispEdges"/><rect fill="#272727" x="0" y="294.3" width="1927.6" height="24.65" shape-rendering="crispEdges"/><rect fill="#000000" x="1927.6" y="294.3" width="24.4" height="24.65" shape-rendering="crispEdges"/><rect fill="#272727" x="0" y="318.7" width="1927.6" height="24.65" shape-rendering="crispEdges"/><rect fill="#000000" x="1927.6" y="318.7" width="24.4" height="24.65" shape-rendering="crispEdges"/><rect fill="#272727" x="0" y="343.1" width="1927.6" height="24.65" shape-rendering="crispEdges"/><rect fill="#000000" x="1927.6" y="343.1" width="24.4" height="24.65" shape-rendering="crispEdges"/><rect fill="#272727" x="0" y="367.5" width="1927.6" height="24.65" shape-rendering="crispEdges"/><rect fill="#000000" x="1927.6" y="367.5" width="24.4" height="24.65" shape-rendering="crispEdges"/><rect fill="#272727" x="0" y="391.9" width="1927.6" height="24.65" shape-rendering="crispEdges"/><rect fill="#000000" x="1927.6" y="391.9" width="24.4" height="24.65" shape-rendering="crispEdges"/><rect fill="#272727" x="0" y="416.3" width="1927.6" height="24.65" shape-rendering="crispEdges"/><rect fill="#000000" x="1927.6" y="416.3" width="24.4" height="24.65" shape-rendering="crispEdges"/><rect fill="#272727" x="0" y="440.7" width="1927.6" height="24.65" shape-rendering="crispEdges"/><rect fill="#000000" x="1927.6" y="440.7" width="24.4" height="24.65" shape-rendering="crispEdges"/><rect fill="#272727" x="0" y="465.1" width="1927.6" height="24.65" shape-rendering="crispEdges"/><rect fill="#000000" x="1927.6" y="465.1" width="24.4" height="24.65" shape-rendering="crispEdges"/><rect fill="#272727" x="0" y="489.5" width="1927.6" height="24.65" shape-rendering="crispEdges"/><rect fill="#000000" x="1927.6" y="489.5" width="24.4" height="24.65" shape-rendering="crispEdges"/><rect fill="#272727" x="0" y="513.9" width="1927.6" height="24.65" shape-rendering="crispEdges"/><rect fill="#000000" x="1927.6" y="513.9" width="24.4" height="24.65" shape-rendering="crispEdges"/><rect fill="#272727" x="0" y="538.3" width="1927.6" height="24.65" shape-rendering="crispEdges"/><rect fill="#000000" x="1927.6" y="538.3" width="24.4" height="24.65" shape-rendering="crispEdges"/><rect fill="#272727" x="0" y="562.7" width="1927.6" height="24.65" shape-rendering="crispEdges"/><rect fill="#000000" x="1927.6" y="562.7" width="24.4" height="24.65" shape-rendering="crispEdges"/><rect fill="#272727" x="0" y="587.1" width="1927.6" height="24.65" shape-rendering="crispEdges"/><rect fill="#000000" x="1927.6" y="587.1" width="24.4" height="24.65" shape-rendering="crispEdges"/><rect fill="#272727" x="0" y="611.5" width="1927.6" height="24.65" shape-rendering="crispEdges"/><rect fill="#000000" x="1927.6" y="611.5" width="24.4" height="24.65" shape-rendering="crispEdges"/><rect fill="#272727" x="0" y="635.9" width="1927.6" height="24.65" shape-rendering="crispEdges"/><rect fill="#000000" x="1927.6" y="635.9" width="24.4" height="24.65" shape-rendering="crispEdges"/><rect fill="#272727" x="0" y="660.3" width="1927.6" height="24.65" shape-rendering="crispEdges"/><rect fill="#000000" x="1927.6" y="660.3" width="24.4" height="24.65" shape-rendering="crispEdges"/><rect fill="#272727" x="0" y="684.7" width="1927.6" height="24.65" shape-rendering="crispEdges"/><rect fill="#000000" x="1927.6" y="684.7" width="24.4" height="24.65" shape-rendering="crispEdges"/><rect fill="#272727" x="0" y="709.1" width="1927.6" height="24.65" shape-rendering="crispEdges"/><rect fill="#000000" x="1927.6" y="709.1" width="24.4" height="24.65" shape-rendering="crispEdges"/><rect fill="#272727" x="0" y="733.5" width="1927.6" height="24.65" shape-rendering="crispEdges"/><rect fill="#000000" x="1927.6" y="733.5" width="24.4" height="24.65" shape-rendering="crispEdges"/><rect fill="#272727" x="0" y="757.9" width="1927.6" height="24.65" shape-rendering="crispEdges"/><rect fill="#000000" x="1927.6" y="757.9" width="24.4" height="24.65" shape-rendering="crispEdges"/><rect fill="#272727" x="0" y="782.3" width="1927.6" height="24.65" shape-rendering="crispEdges"/><rect fill="#000000" x="1927.6" y="782.3" width="24.4" height="24.65" shape-rendering="crispEdges"/><rect fill="#272727" x="0" y="806.7" width="1927.6" height="24.65" shape-rendering="crispEdges"/><rect fill="#000000" x="1927.6" y="806.7" width="24.4" height="24.65" shape-rendering="crispEdges"/><rect fill="#272727" x="0" y="831.1" width="1927.6" height="24.65" shape-rendering="crispEdges"/><rect fill="#000000" x="1927.6" y="831.1" width="24.4" height="24.65" shape-rendering="crispEdges"/><rect fill="#272727" x="0" y="855.5" width="1927.6" height="24.65" shape-rendering="crispEdges"/><rect fill="#000000" x="1927.6" y="855.5" width="24.4" height="24.65" shape-rendering="crispEdges"/><rect fill="#272727" x="0" y="879.9" width="1927.6" height="24.65" shape-rendering="crispEdges"/><rect fill="#000000" x="1927.6" y="879.9" width="24.4" height="24.65" shape-rendering="crispEdges"/><rect fill="#272727" x="0" y="904.3" width="1927.6" height="24.65" shape-rendering="crispEdges"/><rect fill="#000000" x="1927.6" y="904.3" width="24.4" height="24.65" shape-rendering="crispEdges"/><rect fill="#121212" x="0" y="928.7" width="12.2" height="24.65" shape-rendering="crispEdges"/><rect fill="#121212" x="12.2" y="928.7" width="561.2" height="24.65" shape-rendering="crispEdges"/><rect fill="#121212" x="573.4" y="928.7" width="1220" height="24.65" shape-rendering="crispEdges"/><rect fill="#121212" x="1793.4" y="928.7" width="12.2" height="24.65" shape-rendering="crispEdges"/><rect fill="#121212" x="1805.6" y="928.7" width="12.2" height="24.65" shape-rendering="crispEdges"/><rect fill="#121212" x="1817.8" y="928.7" width="122" height="24.65" shape-rendering="crispEdges"/><rect fill="#121212" x="1939.8" y="928.7" width="12.2" height="24.65" shape-rendering="crispEdges"/><rect fill="#242f38" x="0" y="953.1" width="48.8" height="24.65" shape-rendering="crispEdges"/><rect fill="#242f38" x="48.8" y="953.1" width="85.4" height="24.65" shape-rendering="crispEdges"/><rect fill="#242f38" x="134.2" y="953.1" width="48.8" height="24.65" shape-rendering="crispEdges"/><rect fill="#242f38" x="183" y="953.1" width="48.8" height="24.65" shape-rendering="crispEdges"/><rect fill="#242f38" x="231.8" y="953.1" width="48.8" height="24.65" shape-rendering="crispEdges"/><rect fill="#242f38" x="280.6" y="953.1" width="73.2" height="24.65" shape-rendering="crispEdges"/><rect fill="#242f38" x="353.8" y="953.1" width="48.8" height="24.65" shape-rendering="crispEdges"/><rect fill="#242f38" x="402.6" y="953.1" width="73.2" height="24.65" shape-rendering="crispEdges"/><rect fill="#242f38" x="475.8" y="953.1" width="48.8" height="24.65" shape-rendering="crispEdges"/><rect fill="#242f38" x="524.6" y="953.1" width="73.2" height="24.65" shape-rendering="crispEdges"/><rect fill="#242f38" x="597.8" y="953.1" width="48.8" height="24.65" shape-rendering="crispEdges"/><rect fill="#242f38" x="646.6" y="953.1" width="85.4" height="24.65" shape-rendering="crispEdges"/><rect fill="#242f38" x="732" y="953.1" width="48.8" height="24.65" shape-rendering="crispEdges"/><rect fill="#242f38" x="780.8" y="953.1" width="85.4" height="24.65" shape-rendering="crispEdges"/><rect fill="#242f38" x="866.2" y="953.1" width="48.8" height="24.65" shape-rendering="crispEdges"/><rect fill="#242f38" x="915" y="953.1" width="97.6" height="24.65" shape-rendering="crispEdges"/><rect fill="#242f38" x="1012.6" y="953.1" width="48.8" height="24.65" shape-rendering="crispEdges"/><rect fill="#242f38" x="1061.4" y="953.1" width="61" height="24.65" shape-rendering="crispEdges"/><rect fill="#242f38" x="1122.4" y="953.1" width="829.6" height="24.65" shape-rendering="crispEdges"/>
    <g class="terminal-1587723939-matrix">
    <text class="terminal-1587723939-r1" x="0" y="20" textLength="12.2" clip-path="url(#terminal-1587723939-line-0)">▊</text><text class="terminal-1587723939-r2" x="12.2" y="20" textLength="1744.6" clip-path="url(#terminal-1587723939-line-0)">▔▔▔▔▔▔▔▔▔▔▔▔▔▔▔▔▔▔▔▔▔▔▔▔▔▔▔▔▔▔▔▔▔▔▔▔▔▔▔▔▔▔▔▔▔▔▔▔▔▔▔▔▔▔▔▔▔▔▔▔▔▔▔▔▔▔▔▔▔▔▔▔▔▔▔▔▔▔▔▔▔▔▔▔▔▔▔▔▔▔▔▔▔▔▔▔▔▔▔▔▔▔▔▔▔▔▔▔▔▔▔▔▔▔▔▔▔▔▔▔▔▔▔▔▔▔▔▔▔▔▔▔▔▔▔▔▔▔▔▔▔▔▔</text><text class="terminal-1587723939-r2" x="1756.8" y="20" textLength="12.2" clip-path="url(#terminal-1587723939-line-0)">▎</text><text class="terminal-1587723939-r1" x="1769" y="20" textLength="12.2" clip-path="url(#terminal-1587723939-line-0)">▊</text><text class="terminal-1587723939-r2" x="1781.2" y="20" textLength="158.6" clip-path="url(#terminal-1587723939-line-0)">▔▔▔▔▔▔▔▔▔▔▔▔▔</text><text class="terminal-1587723939-r2" x="1939.8" y="20" textLength="12.2" clip-path="url(#terminal-1587723939-line-0)">▎</text><text class="terminal-1587723939-r3" x="1952" y="20" textLength="12.2" clip-path="url(#terminal-1587723939-line-0)">
</text><text class="terminal-1587723939-r1" x="0" y="44.4" textLength="12.2" clip-path="url(#terminal-1587723939-line-1)">▊</text><text class="terminal-1587723939-r4" x="24.4" y="44.4" textLength="48.8" clip-path="url(#terminal-1587723939-line-1)">tag:</text><text class="terminal-1587723939-r5" x="73.2" y="44.4" textLength="48.8" clip-path="url(#terminal-1587723939-line-1)">Ads&#160;</text><text class="terminal-1587723939-r6" x="122" y="44.4" textLength="24.4" clip-path="url(#terminal-1587723939-line-1)">OR</text><text class="terminal-1587723939-r4" x="158.6" y="44.4" textLength="97.6" clip-path="url(#terminal-1587723939-line-1)">message:</text><text class="terminal-1587723939-r5" x="256.2" y="44.4" textLength="61" clip-path="url(#terminal-1587723939-line-1)">retry</text><text class="terminal-1587723939-r7" x="1732.4" y="44.4" textLength="12.2" clip-path="url(#terminal-1587723939-line-1)">✕</text><text class="terminal-1587723939-r2" x="1756.8" y="44.4" textLength="12.2" clip-path="url(#terminal-1587723939-line-1)">▎</text><text class="terminal-1587723939-r1" x="1769" y="44.4" textLength="12.2" clip-path="url(#terminal-1587723939-line-1)">▊</text><text class="terminal-1587723939-r8" x="1805.6" y="44.4" textLength="73.2" clip-path="url(#terminal-1587723939-line-1)">Level&#160;</text><text class="terminal-1587723939-r4" x="1878.8" y="44.4" textLength="36.6" clip-path="url(#terminal-1587723939-line-1)">≥&#160;D</text><text class="terminal-1587723939-r2" x="1939.8" y="44.4" textLength="12.2" clip-path="url(#terminal-1587723939-line-1)">▎</text><text class="terminal-1587723939-r3" x="1952" y="44.4" textLength="12.2" clip-path="url(#terminal-1587723939-line-1)">
</text><text class="terminal-1587723939-r1" x="0" y="68.8" textLength="12.2" clip-path="url(#terminal-1587723939-line-2)">▊</text><text class="terminal-1587723939-r2" x="12.2" y="68.8" textLength="1744.6" clip-path="url(#terminal-1587723939-line-2)">▁▁▁▁▁▁▁▁▁▁▁▁▁▁▁▁▁▁▁▁▁▁▁▁▁▁▁▁▁▁▁▁▁▁▁▁▁▁▁▁▁▁▁▁▁▁▁▁▁▁▁▁▁▁▁▁▁▁▁▁▁▁▁▁▁▁▁▁▁▁▁▁▁▁▁▁▁▁▁▁▁▁▁▁▁▁▁▁▁▁▁▁▁▁▁▁▁▁▁▁▁▁▁▁▁▁▁▁▁▁▁▁▁▁▁▁▁▁▁▁▁▁▁▁▁▁▁▁▁▁▁▁▁▁▁▁▁▁▁▁▁▁▁</text><text class="terminal-1587723939-r2" x="1756.8" y="68.8" textLength="12.2" clip-path="url(#terminal-1587723939-line-2)">▎</text><text class="terminal-1587723939-r1" x="1769" y="68.8" textLength="12.2" clip-path="url(#terminal-1587723939-line-2)">▊</text><text class="terminal-1587723939-r2" x="1781.2" y="68.8" textLength="158.6" clip-path="url(#terminal-1587723939-line-2)">▁▁▁▁▁▁▁▁▁▁▁▁▁</text><text class="terminal-1587723939-r2" x="1939.8" y="68.8" textLength="12.2" clip-path="url(#terminal-1587723939-line-2)">▎</text><text class="terminal-1587723939-r3" x="1952" y="68.8" textLength="12.2" clip-path="url(#terminal-1587723939-line-2)">
</text><text class="terminal-1587723939-r9" x="0" y="93.2" textLength="219.6" clip-path="url(#terminal-1587723939-line-3)">06-16&#160;14:22:22.100</text><text class="terminal-1587723939-r10" x="244" y="93.2" textLength="341.6" clip-path="url(#terminal-1587723939-line-3)">com.example.app&#160;&#160;&#160;&#160;&#160;&#160;&#160;&#160;&#160;&#160;&#160;&#160;&#160;</text><text class="terminal-1587723939-r11" x="597.8" y="93.2" textLength="12.2" clip-path="url(#terminal-1587723939-line-3)">I</text><text class="terminal-1587723939-r12" x="634.4" y="93.2" textLength="36.6" clip-path="url(#terminal-1587723939-line-3)">Ads</text><text class="terminal-1587723939-r13" x="671" y="93.2" textLength="85.4" clip-path="url(#terminal-1587723939-line-3)">Manager</text><text class="terminal-1587723939-r5" x="756.4" y="93.2" textLength="475.8" clip-path="url(#terminal-1587723939-line-3)">:&#160;ad&#160;request&#160;sent&#160;for&#160;slot&#160;interstitial</text><text class="terminal-1587723939-r3" x="1952" y="93.2" textLength="12.2" clip-path="url(#terminal-1587723939-line-3)">
</text><text class="terminal-1587723939-r9" x="0" y="117.6" textLength="219.6" clip-path="url(#terminal-1587723939-line-4)">06-16&#160;14:22:22.512</text><text class="terminal-1587723939-r10" x="244" y="117.6" textLength="341.6" clip-path="url(#terminal-1587723939-line-4)">com.example.app&#160;&#160;&#160;&#160;&#160;&#160;&#160;&#160;&#160;&#160;&#160;&#160;&#160;</text><text class="terminal-1587723939-r14" x="597.8" y="117.6" textLength="12.2" clip-path="url(#terminal-1587723939-line-4)">W</text><text class="terminal-1587723939-r12" x="634.4" y="117.6" textLength="36.6" clip-path="url(#terminal-1587723939-line-4)">Ads</text><text class="terminal-1587723939-r13" x="671" y="117.6" textLength="85.4" clip-path="url(#terminal-1587723939-line-4)">Manager</text><text class="terminal-1587723939-r5" x="756.4" y="117.6" textLength="24.4" clip-path="url(#terminal-1587723939-line-4)">:&#160;</text><text class="terminal-1587723939-r14" x="780.8" y="117.6" textLength="402.6" clip-path="url(#terminal-1587723939-line-4)">no&#160;fill&#160;returned&#160;for&#160;interstitial</text><text class="terminal-1587723939-r3" x="1952" y="117.6" textLength="12.2" clip-path="url(#terminal-1587723939-line-4)">
</text><text class="terminal-1587723939-r9" x="0" y="142" textLength="219.6" clip-path="url(#terminal-1587723939-line-5)">06-16&#160;14:22:23.010</text><text class="terminal-1587723939-r10" x="244" y="142" textLength="341.6" clip-path="url(#terminal-1587723939-line-5)">com.example.app&#160;&#160;&#160;&#160;&#160;&#160;&#160;&#160;&#160;&#160;&#160;&#160;&#160;</text><text class="terminal-1587723939-r15" x="597.8" y="142" textLength="12.2" clip-path="url(#terminal-1587723939-line-5)">E</text><text class="terminal-1587723939-r12" x="634.4" y="142" textLength="36.6" clip-path="url(#terminal-1587723939-line-5)">Ads</text><text class="terminal-1587723939-r13" x="671" y="142" textLength="85.4" clip-path="url(#terminal-1587723939-line-5)">Manager</text><text class="terminal-1587723939-r5" x="756.4" y="142" textLength="24.4" clip-path="url(#terminal-1587723939-line-5)">:&#160;</text><text class="terminal-1587723939-r15" x="780.8" y="142" textLength="402.6" clip-path="url(#terminal-1587723939-line-5)">load&#160;failed:&#160;timeout&#160;after&#160;5000ms</text><text class="terminal-1587723939-r3" x="1952" y="142" textLength="12.2" clip-path="url(#terminal-1587723939-line-5)">
</text><text class="terminal-1587723939-r9" x="0" y="166.4" textLength="219.6" clip-path="url(#terminal-1587723939-line-6)">06-16&#160;14:22:23.150</text><text class="terminal-1587723939-r10" x="244" y="166.4" textLength="341.6" clip-path="url(#terminal-1587723939-line-6)">com.example.app&#160;&#160;&#160;&#160;&#160;&#160;&#160;&#160;&#160;&#160;&#160;&#160;&#160;</text><text class="terminal-1587723939-r11" x="597.8" y="166.4" textLength="12.2" clip-path="url(#terminal-1587723939-line-6)">I</text><text class="terminal-1587723939-r12" x="634.4" y="166.4" textLength="36.6" clip-path="url(#terminal-1587723939-line-6)">Ads</text><text class="terminal-1587723939-r13" x="671" y="166.4" textLength="73.2" clip-path="url(#terminal-1587723939-line-6)">Loader</text><text class="terminal-1587723939-r5" x="744.2" y="166.4" textLength="24.4" clip-path="url(#terminal-1587723939-line-6)">:&#160;</text><text class="terminal-1587723939-r12" x="768.6" y="166.4" textLength="61" clip-path="url(#terminal-1587723939-line-6)">retry</text><text class="terminal-1587723939-r5" x="829.6" y="166.4" textLength="268.4" clip-path="url(#terminal-1587723939-line-6)">&#160;2&#160;scheduled&#160;in&#160;2000ms</text><text class="terminal-1587723939-r3" x="1952" y="166.4" textLength="12.2" clip-path="url(#terminal-1587723939-line-6)">
</text><text class="terminal-1587723939-r3" x="1952" y="190.8" textLength="12.2" clip-path="url(#terminal-1587723939-line-7)">
</text><text class="terminal-1587723939-r3" x="1952" y="215.2" textLength="12.2" clip-path="url(#terminal-1587723939-line-8)">
</text><text class="terminal-1587723939-r3" x="1952" y="239.6" textLength="12.2" clip-path="url(#terminal-1587723939-line-9)">
</text><text class="terminal-1587723939-r3" x="1952" y="264" textLength="12.2" clip-path="url(#terminal-1587723939-line-10)">
</text><text class="terminal-1587723939-r3" x="1952" y="288.4" textLength="12.2" clip-path="url(#terminal-1587723939-line-11)">
</text><text class="terminal-1587723939-r3" x="1952" y="312.8" textLength="12.2" clip-path="url(#terminal-1587723939-line-12)">
</text><text class="terminal-1587723939-r3" x="1952" y="337.2" textLength="12.2" clip-path="url(#terminal-1587723939-line-13)">
</text><text class="terminal-1587723939-r3" x="1952" y="361.6" textLength="12.2" clip-path="url(#terminal-1587723939-line-14)">
</text><text class="terminal-1587723939-r3" x="1952" y="386" textLength="12.2" clip-path="url(#terminal-1587723939-line-15)">
</text><text class="terminal-1587723939-r3" x="1952" y="410.4" textLength="12.2" clip-path="url(#terminal-1587723939-line-16)">
</text><text class="terminal-1587723939-r3" x="1952" y="434.8" textLength="12.2" clip-path="url(#terminal-1587723939-line-17)">
</text><text class="terminal-1587723939-r3" x="1952" y="459.2" textLength="12.2" clip-path="url(#terminal-1587723939-line-18)">
</text><text class="terminal-1587723939-r3" x="1952" y="483.6" textLength="12.2" clip-path="url(#terminal-1587723939-line-19)">
</text><text class="terminal-1587723939-r3" x="1952" y="508" textLength="12.2" clip-path="url(#terminal-1587723939-line-20)">
</text><text class="terminal-1587723939-r3" x="1952" y="532.4" textLength="12.2" clip-path="url(#terminal-1587723939-line-21)">
</text><text class="terminal-1587723939-r3" x="1952" y="556.8" textLength="12.2" clip-path="url(#terminal-1587723939-line-22)">
</text><text class="terminal-1587723939-r3" x="1952" y="581.2" textLength="12.2" clip-path="url(#terminal-1587723939-line-23)">
</text><text class="terminal-1587723939-r3" x="1952" y="605.6" textLength="12.2" clip-path="url(#terminal-1587723939-line-24)">
</text><text class="terminal-1587723939-r3" x="1952" y="630" textLength="12.2" clip-path="url(#terminal-1587723939-line-25)">
</text><text class="terminal-1587723939-r3" x="1952" y="654.4" textLength="12.2" clip-path="url(#terminal-1587723939-line-26)">
</text><text class="terminal-1587723939-r3" x="1952" y="678.8" textLength="12.2" clip-path="url(#terminal-1587723939-line-27)">
</text><text class="terminal-1587723939-r3" x="1952" y="703.2" textLength="12.2" clip-path="url(#terminal-1587723939-line-28)">
</text><text class="terminal-1587723939-r3" x="1952" y="727.6" textLength="12.2" clip-path="url(#terminal-1587723939-line-29)">
</text><text class="terminal-1587723939-r3" x="1952" y="752" textLength="12.2" clip-path="url(#terminal-1587723939-line-30)">
</text><text class="terminal-1587723939-r3" x="1952" y="776.4" textLength="12.2" clip-path="url(#terminal-1587723939-line-31)">
</text><text class="terminal-1587723939-r3" x="1952" y="800.8" textLength="12.2" clip-path="url(#terminal-1587723939-line-32)">
</text><text class="terminal-1587723939-r3" x="1952" y="825.2" textLength="12.2" clip-path="url(#terminal-1587723939-line-33)">
</text><text class="terminal-1587723939-r3" x="1952" y="849.6" textLength="12.2" clip-path="url(#terminal-1587723939-line-34)">
</text><text class="terminal-1587723939-r3" x="1952" y="874" textLength="12.2" clip-path="url(#terminal-1587723939-line-35)">
</text><text class="terminal-1587723939-r3" x="1952" y="898.4" textLength="12.2" clip-path="url(#terminal-1587723939-line-36)">
</text><text class="terminal-1587723939-r3" x="1952" y="922.8" textLength="12.2" clip-path="url(#terminal-1587723939-line-37)">
</text><text class="terminal-1587723939-r16" x="12.2" y="947.2" textLength="561.2" clip-path="url(#terminal-1587723939-line-38)">device:&#160;waiting…&#160;&#160;&#160;|&#160;&#160;&#160;4&#160;matching&#160;/&#160;7&#160;buffered</text><text class="terminal-1587723939-r4" x="1817.8" y="947.2" textLength="109.8" clip-path="url(#terminal-1587723939-line-38)">🐈&#160;𝒸𝒶𝓉𝒻𝓁𝒶𝓅</text><text class="terminal-1587723939-r3" x="1952" y="947.2" textLength="12.2" clip-path="url(#terminal-1587723939-line-38)">
</text><text class="terminal-1587723939-r17" x="0" y="971.6" textLength="48.8" clip-path="url(#terminal-1587723939-line-39)">&#160;^d&#160;</text><text class="terminal-1587723939-r5" x="48.8" y="971.6" textLength="85.4" clip-path="url(#terminal-1587723939-line-39)">Device&#160;</text><text class="terminal-1587723939-r17" x="134.2" y="971.6" textLength="48.8" clip-path="url(#terminal-1587723939-line-39)">&#160;^a&#160;</text><text class="terminal-1587723939-r5" x="183" y="971.6" textLength="48.8" clip-path="url(#terminal-1587723939-line-39)">ADB&#160;</text><text class="terminal-1587723939-r17" x="231.8" y="971.6" textLength="48.8" clip-path="url(#terminal-1587723939-line-39)">&#160;^l&#160;</text><text class="terminal-1587723939-r5" x="280.6" y="971.6" textLength="73.2" clip-path="url(#terminal-1587723939-line-39)">Clear&#160;</text><text class="terminal-1587723939-r17" x="353.8" y="971.6" textLength="48.8" clip-path="url(#terminal-1587723939-line-39)">&#160;^s&#160;</text><text class="terminal-1587723939-r5" x="402.6" y="971.6" textLength="73.2" clip-path="url(#terminal-1587723939-line-39)">Pause&#160;</text><text class="terminal-1587723939-r17" x="475.8" y="971.6" textLength="48.8" clip-path="url(#terminal-1587723939-line-39)">&#160;^g&#160;</text><text class="terminal-1587723939-r5" x="524.6" y="971.6" textLength="73.2" clip-path="url(#terminal-1587723939-line-39)">Crash&#160;</text><text class="terminal-1587723939-r17" x="597.8" y="971.6" textLength="48.8" clip-path="url(#terminal-1587723939-line-39)">&#160;^b&#160;</text><text class="terminal-1587723939-r5" x="646.6" y="971.6" textLength="85.4" clip-path="url(#terminal-1587723939-line-39)">Buffer&#160;</text><text class="terminal-1587723939-r17" x="732" y="971.6" textLength="48.8" clip-path="url(#terminal-1587723939-line-39)">&#160;^e&#160;</text><text class="terminal-1587723939-r5" x="780.8" y="971.6" textLength="85.4" clip-path="url(#terminal-1587723939-line-39)">Export&#160;</text><text class="terminal-1587723939-r17" x="866.2" y="971.6" textLength="48.8" clip-path="url(#terminal-1587723939-line-39)">&#160;^p&#160;</text><text class="terminal-1587723939-r5" x="915" y="971.6" textLength="97.6" clip-path="url(#terminal-1587723939-line-39)">Palette&#160;</text><text class="terminal-1587723939-r17" x="1012.6" y="971.6" textLength="48.8" clip-path="url(#terminal-1587723939-line-39)">&#160;^q&#160;</text><text class="terminal-1587723939-r5" x="1061.4" y="971.6" textLength="61" clip-path="url(#terminal-1587723939-line-39)">Quit&#160;</text>
    </g>
    </g>
</svg>
